<?xml version="1.0" encoding="UTF-8" standalone="no"?>
<svg
   width="1024"
   height="1024"
   viewBox="0 0 1024 1024"
   fill="none"
   version="1.1"
   id="svg4592"
   sodipodi:docname="node_icon.svg"
   inkscape:version="1.2.2 (732a01da63, 2022-12-09)"
   inkscape:export-filename="application\LunaCoin\node_icon.png"
   inkscape:export-xdpi="96"
   inkscape:export-ydpi="96"
   xmlns:inkscape="http://www.inkscape.org/namespaces/inkscape"
   xmlns:sodipodi="http://sodipodi.sourceforge.net/DTD/sodipodi-0.dtd"
   xmlns="http://www.w3.org/2000/svg"
   xmlns:svg="http://www.w3.org/2000/svg">
  <defs
     id="defs4596" />
  <sodipodi:namedview
     id="namedview4594"
     pagecolor="#ffffff"
     bordercolor="#000000"
     borderopacity="0.25"
     inkscape:showpageshadow="2"
     inkscape:pageopacity="0.0"
     inkscape:pagecheckerboard="0"
     inkscape:deskcolor="#d1d1d1"
     showgrid="false"
     inkscape:zoom="1.1775568"
     inkscape:cx="276.8444"
     inkscape:cy="352.42461"
     inkscape:window-width="1920"
     inkscape:window-height="1009"
     inkscape:window-x="-8"
     inkscape:window-y="-8"
     inkscape:window-maximized="1"
     inkscape:current-layer="svg4592" />
  <path
     d="m 474.7556,674.17052 c 7.56296,6.15576 14.57399,12.63307 21.44032,19.51339 3.90231,3.86572 7.88219,7.53212 12.12013,11.0472 8.1507,6.92688 15.75543,14.38916 23.39894,21.83835 1.58868,1.54513 3.17884,3.09171 4.76751,4.63683 3.31606,3.22556 6.62914,6.45402 9.94074,9.68394 4.20214,4.09851 8.41323,8.18684 12.62731,12.2708 3.28325,3.18627 6.55904,6.37836 9.83335,9.57338 1.54689,1.50729 3.09678,3.01313 4.64965,4.51606 8.89207,8.61312 17.27696,17.44158 25.09053,27.01059 2.89094,3.53255 5.87883,6.96616 8.89358,10.39685 24.61468,30.27252 36.35293,68.49472 32.50282,106.89296 -4.12606,33.76723 -21.36424,63.11151 -47.71677,85.41834 -29.04505,21.57209 -65.55312,30.25509 -101.63606,25.96739 -33.39786,-5.6262 -63.2544,-23.93341 -82.88976,-50.85234 -22.04596,-31.53539 -29.24942,-66.74299 -22.33833,-104.50107 11.28627,-45.46478 40.99661,-75.89589 74.39896,-107.5724 10.97599,7.29934 10.97599,7.29934 15.29,12.54868 5.69684,6.66936 12.05599,12.58652 18.48824,18.56624 3.39364,3.67222 5.00468,6.40455 6.49788,11.07775 -0.59221,0.55433 -1.18441,1.10865 -1.79303,1.67899 -26.2123,24.69144 -53.93122,52.93434 -55.5915,90.52656 -0.30132,20.48526 5.96684,38.35896 20.19028,53.70109 14.88873,13.89739 33.44409,19.26604 53.72537,18.95324 17.23222,-1.33999 33.91846,-8.05589 45.8402,-20.45909 15.7241,-19.05363 18.8537,-42.1272 16.68923,-65.83512 -5.68341,-34.2168 -38.56513,-63.76912 -63.81678,-85.90283 -5.6491,-5.00201 -11.05804,-10.23244 -16.45653,-15.48761 -0.90995,-0.88168 -1.81988,-1.76191 -2.75668,-2.66978 -4.34535,-4.25128 -8.52511,-8.55929 -12.50947,-13.13502 -8.58776,-9.69122 -18.12126,-18.54878 -27.434,-27.56927 -1.96458,-1.91031 -3.92916,-3.81917 -5.89374,-5.72948 -4.77496,-4.64119 -9.55439,-9.27803 -14.33682,-13.91193 2.1242,-6.72464 6.04442,-10.8348 11.10578,-15.62439 0.79061,-0.76384 1.58121,-1.52912 2.39568,-2.31769 2.51204,-2.42535 5.04049,-4.83615 7.56893,-7.24695 1.71248,-1.64843 3.42347,-3.29685 5.13297,-4.94674 4.18275,-4.03158 8.37743,-8.04861 12.58107,-12.05692 z"
     fill="#F53431"
     id="path4536"
     style="fill:#00a1ff;fill-opacity:1;stroke-width:1.47319" />
  <path
     d="m 593.57316,27.020471 c 3.73375,3.224684 7.35562,6.535499 10.96107,9.894618 0.9174,0.785802 1.8348,1.571605 2.77905,2.381268 23.12148,20.580858 34.18548,52.036515 36.41858,81.674393 1.31121,47.97742 -20.71238,86.25928 -53.60007,120.28985 -8.46843,8.66259 -17.12481,17.13896 -25.87368,25.53239 -8.85628,-7.17421 -17.03233,-14.89111 -25.17259,-22.82479 -1.29181,-1.24249 -2.58513,-2.485 -3.91573,-3.76532 -1.22619,-1.19304 -2.45386,-2.38753 -3.71734,-3.61693 -1.11281,-1.07956 -2.22712,-2.15911 -3.37276,-3.27212 -2.60601,-2.89383 -2.60601,-2.89383 -4.09772,-7.25859 0.69067,-0.65036 1.37983,-1.30071 2.09138,-1.97143 27.05064,-25.60658 54.26687,-53.63997 56.38808,-92.30345 0.14619,-11.96045 -0.38636,-22.41813 -4.77795,-33.75864 -0.38038,-1.007096 -0.76226,-2.014336 -1.15309,-3.051986 -6.39644,-14.393521 -19.75469,-26.950352 -34.50919,-33.040355 -8.91444,-3.24447 -17.14868,-3.981678 -26.61655,-3.917953 -2.16148,0.01253 -2.16148,0.01253 -4.36622,0.02517 -19.51752,0.473868 -34.58527,7.250448 -48.11208,21.110887 -14.63664,16.942104 -18.07354,36.565627 -16.51322,58.157067 1.01139,6.94593 2.54784,13.61281 4.47514,20.36945 0.32817,1.20032 0.65784,2.40063 0.99645,3.63731 2.91033,8.52728 7.9702,15.6724 13.17477,23.00518 1.01884,1.44766 1.01884,1.44766 2.06006,2.92294 4.81522,6.55586 10.16152,12.55741 15.7763,18.46729 0.78464,0.8264 1.56928,1.6528 2.3763,2.50392 7.60621,7.9686 15.44514,15.69277 23.36909,23.35873 2.5016,2.42099 4.99723,4.84635 7.49285,7.27461 5.28364,5.13733 10.57472,10.26882 15.86582,15.40033 6.17419,5.98699 12.34539,11.97689 18.51061,17.97263 2.44192,2.37152 4.88684,4.73866 7.33324,7.10582 7.43766,7.21931 14.66796,14.47354 21.33143,22.38831 -2.7164,5.72801 -6.52921,9.65048 -11.10577,14.02543 -0.7906,0.76673 -1.5812,1.53348 -2.39568,2.3235 -2.51651,2.43844 -5.04198,4.86526 -7.56894,7.29351 -1.71248,1.65424 -3.42346,3.30995 -5.13296,4.96709 -4.18573,4.05051 -8.3819,8.09082 -12.58106,12.12822 -10.20181,-8.1621 -19.40714,-17.26263 -28.71539,-26.36024 -1.76619,-1.72116 -3.53238,-3.44234 -5.29856,-5.16206 -3.6875,-3.59656 -7.37351,-7.19457 -11.05803,-10.79404 -4.69441,-4.58592 -9.39479,-9.166 -14.09813,-13.74462 -3.64426,-3.55002 -7.28551,-7.10292 -10.92678,-10.6573 -1.73037,-1.68916 -3.46225,-3.37686 -5.19412,-5.06312 -8.2954,-8.07772 -16.53558,-16.14233 -24.13584,-24.85876 -2.94165,-3.36086 -6.07872,-6.53841 -9.18893,-9.75086 -8.45052,-9.0467 -15.66293,-18.76993 -22.65457,-28.91654 -0.86222,-1.24251 -1.72292,-2.48355 -2.6105,-3.76243 -19.5906,-29.95534 -27.03721,-69.90293 -19.72634,-104.751883 7.74942,-30.557535 27.6682,-57.998195 53.66272,-76.261075 1.07701,-0.759613 2.15402,-1.519227 3.26236,-2.301683 44.9586,-28.8518888 108.32936,-26.6344456 149.86449,6.956263 z"
     fill="#F63431"
     id="path4538"
     style="fill:#00a1ff;fill-opacity:1;stroke-width:1.47319" />
  <path
     d="m 227.49299,433.47151 c 10.9924,8.78625 21.09873,18.31016 30.96489,28.27928 -2.39271,5.8284 -6.59484,9.71595 -11.10577,14.02688 -1.18591,1.15084 -1.18591,1.15084 -2.39568,2.32351 -2.51652,2.43844 -5.04198,4.86525 -7.56894,7.29205 -1.71248,1.65569 -3.42346,3.3114 -5.13297,4.96709 -4.18573,4.0505 -8.38191,8.09227 -12.58107,12.12822 -5.17174,-2.39043 -8.83538,-5.19698 -13.05244,-9.00159 -1.32314,-1.17557 -2.64629,-2.35261 -4.00972,-3.56309 -2.248,-2.0238 -4.48854,-4.05487 -6.71268,-6.10486 -21.8043,-19.57157 -45.6254,-29.57414 -75.34813,-28.39857 -14.36873,0.90641 -28.767152,5.81823 -39.099024,16.06085 -1.99859,1.90886 -1.99859,1.90886 -4.982006,1.90886 -0.402016,0.83513 -0.803883,1.67025 -1.21798,2.5301 -1.805415,3.36524 -3.882322,6.2969 -6.147331,9.38279 -10.072463,14.84455 -10.923333,30.18085 -8.449185,47.54677 3.689293,14.62631 13.979396,26.44316 26.763337,34.48015 6.525329,3.42924 13.282469,5.84877 20.376889,7.90457 0.94231,0.28226 1.88447,0.56306 2.85528,0.85259 20.99728,4.06504 41.90954,-1.88412 59.79662,-12.49195 21.55369,-15.09188 40.23287,-34.662 58.90459,-52.94452 2.14656,-2.09654 4.29164,-4.19162 6.43821,-6.28672 5.58345,-5.45012 11.16096,-10.90461 16.73696,-16.3591 5.71772,-5.59272 11.43992,-11.17962 17.16211,-16.76796 11.17737,-10.91772 22.35026,-21.8398 33.52018,-32.76479 10.11378,4.73576 16.7847,13.45364 24.00159,21.63175 5.17473,5.6349 10.73433,10.90462 16.27453,16.19616 -1.99888,4.37494 -4.1738,7.27169 -7.73898,10.54817 -3.52639,3.25611 -6.73208,6.64171 -9.86615,10.25136 -8.25363,9.22275 -17.23669,17.75731 -26.11535,26.40097 -1.92877,1.88267 -3.85905,3.76679 -5.78932,5.65092 -4.02761,3.93119 -8.05969,7.85947 -12.09178,11.7863 -5.14192,5.00784 -10.27787,10.02149 -15.41234,15.0366 -3.97838,3.88609 -7.96125,7.76781 -11.9441,11.64954 -1.89447,1.8463 -3.78596,3.69404 -5.67894,5.54179 -34.90597,34.09604 -69.9656,60.48537 -121.6609,60.62941 -37.080444,-0.0133 -67.359887,-11.22761 -93.977634,-36.73672 -0.932468,-0.89041 -1.865084,-1.78082 -2.826043,-2.69888 C 8.8406696,572.11372 -0.48433385,541.05119 0.01931643,511.026 2.21735,477.86256 18.025656,449.76515 43.022512,427.82206 97.913652,383.54448 173.81536,391.58874 227.49299,433.47151 Z"
     fill="#F53432"
     id="path4540"
     style="fill:#00a1ff;fill-opacity:1;stroke-width:1.47319" />
  <path
     d="m 978.37576,424.11055 c 24.93094,21.21709 41.32774,47.44785 45.32854,79.83436 1.7393,27.07752 -4.1902,49.24612 -17.9005,72.74599 -0.6862,1.22068 -1.3724,2.44136 -2.0809,3.69986 -16.76683,27.12407 -44.93327,42.34544 -75.48794,50.13218 -35.09244,8.14318 -72.09576,2.06744 -102.99501,-15.76843 -22.4696,-13.49292 -42.91347,-31.10764 -61.09292,-49.70297 2.41807,-5.96808 6.82756,-9.94002 11.43245,-14.34551 0.82343,-0.79875 1.64686,-1.59749 2.49563,-2.42099 2.62243,-2.54174 5.25529,-5.0733 7.88816,-7.60341 1.78408,-1.72553 3.56668,-3.45107 5.34927,-5.17805 4.36176,-4.22218 8.73394,-8.43708 13.11062,-12.64471 6.48744,5.36865 12.86002,10.82751 19.11178,16.45805 0.76822,0.68672 1.53645,1.37199 2.32854,2.07908 3.61591,3.22847 7.20048,6.47584 10.7418,9.78143 17.65884,16.22527 37.52094,25.51637 62.07446,26.14927 19.33404,-0.63726 37.86105,-6.41474 52.19936,-19.43627 12.41697,-13.82756 15.43022,-29.46795 15.11398,-47.30236 -1.57972,-17.58269 -10.08992,-30.85448 -23.71517,-42.03991 -18.93128,-12.78728 -41.05183,-15.6622 -63.50203,-12.10638 -41.6858,9.32313 -70.6861,46.66946 -99.35972,74.94292 -3.70242,3.64894 -7.41081,7.2906 -11.12366,10.9279 -2.08243,2.04416 -4.1574,4.09851 -6.23087,6.1514 -1.25155,1.22504 -2.50309,2.45008 -3.79192,3.71296 -1.10089,1.08391 -2.20177,2.16928 -3.33696,3.28666 -2.71939,2.31332 -2.71939,2.31332 -5.7028,2.31332 -0.33415,0.80166 -0.66977,1.60478 -1.01436,2.43117 -2.57171,4.42441 -5.88479,7.48265 -9.61407,11.02684 -1.35745,1.29779 -2.7149,2.59557 -4.11413,3.93265 -1.04269,0.98207 -2.08391,1.96559 -3.15795,2.97822 -4.48108,-1.97432 -7.7345,-4.21636 -11.29818,-7.50884 -0.99051,-0.90932 -1.981,-1.81866 -3.00132,-2.75562 -1.03526,-0.96461 -2.069,-1.92777 -3.13558,-2.92148 -1.05912,-0.9777 -2.11822,-1.95686 -3.21016,-2.96366 -7.66737,-7.10292 -15.23034,-14.29606 -22.61429,-21.67831 2.32109,-5.65528 5.9012,-8.66987 10.55235,-12.6578 10.10184,-8.85756 19.70546,-18.17923 29.2867,-27.56347 0.78464,-0.76818 1.56928,-1.53493 2.37779,-2.32641 5.72965,-5.6058 11.45184,-11.21743 17.17105,-16.83196 5.75352,-5.64509 11.51003,-11.28873 17.271,-16.92655 2.27336,-2.22602 4.54226,-4.45786 6.81114,-6.68826 7.72109,-7.56995 15.59432,-14.84018 23.93297,-21.75978 1.41712,-1.24396 2.83425,-2.4879 4.29463,-3.76824 48.28512,-41.19896 127.46798,-48.31789 178.60822,-7.68489 z"
     fill="#F53532"
     id="path4542"
     style="fill:#00a1ff;fill-opacity:1;stroke-width:1.47319" />
  <path
     d="m 641.82695,514.12935 c 10.94764,8.73825 20.69596,18.63461 30.62029,28.43932 2.32707,2.29732 4.6601,4.58881 6.99314,6.88177 2.05557,2.03107 2.05557,2.03107 4.1544,4.10287 3.30562,3.18919 6.74252,6.18487 10.25848,9.15144 6.13092,5.18388 11.94858,10.62675 17.71702,16.19035 1.05016,1.01408 2.10182,2.0267 3.1848,3.07134 2.20474,2.13 4.40651,4.26146 6.60678,6.39728 2.22861,2.15619 4.46318,4.30511 6.70373,6.4482 14.85592,14.20584 28.13809,27.30594 35.89499,46.53124 0.58026,1.40838 1.16204,2.81674 1.76021,4.26875 6.72909,18.25487 4.36623,41.34008 -3.39215,58.85004 -5.26722,10.247 -12.29616,18.364 -20.55724,26.45044 -0.8249,0.83804 -1.64982,1.67607 -2.50009,2.5403 -17.59172,16.39113 -41.0742,18.6899 -64.07336,18.28252 -9.46488,-0.3841 -17.37095,-2.26095 -25.91247,-6.27362 -1.3306,-0.56741 -2.6612,-1.13338 -4.03208,-1.7168 -13.31648,-6.27216 -28.06649,-17.24953 -34.75233,-30.29142 12.79885,-12.48322 25.59772,-24.96643 38.78441,-37.82793 6.59187,5.51124 13.11362,11.03266 19.54884,16.7083 6.477,5.05295 11.68754,5.76876 19.83526,5.5578 7.5018,-0.8584 12.99576,-3.36523 18.20332,-8.72952 4.71378,-6.35946 5.92058,-12.05983 6.05484,-19.81164 -2.70447,-10.6733 -10.77163,-18.37274 -18.70454,-25.73318 -1.86761,-1.77354 -3.73225,-3.54854 -5.5939,-5.32645 -0.87862,-0.83804 -1.75723,-1.67607 -2.66271,-2.54029 -2.87153,-2.80654 -5.53572,-5.74258 -8.15217,-8.77462 -3.06099,-3.53692 -6.2085,-6.58497 -9.8423,-9.55882 -7.5928,-6.40456 -14.66052,-13.30234 -21.73866,-20.23503 -2.25846,-2.21003 -4.52586,-4.41423 -6.79324,-6.61552 -7.17811,-6.99816 -14.1787,-14.07489 -20.7825,-21.59973 -3.02816,-3.40307 -6.26368,-6.57479 -9.55588,-9.73488 -1.1516,-1.11155 -2.3032,-2.22166 -3.4891,-3.36523 -0.84878,-0.81039 -1.69607,-1.62077 -2.57022,-2.45444 7.61368,-8.99432 15.93592,-17.1666 24.42674,-25.37089 1.38281,-1.34144 2.76562,-2.68434 4.1902,-4.06651 3.38469,-3.2852 6.77534,-6.56751 10.16749,-9.84544 z"
     fill="#F53431"
     id="path4544"
     style="fill:#00a1ff;fill-opacity:1;stroke-width:1.47319" />
  <path
     d="m 396.71985,274.24946 c 6.28159,4.19453 12.04406,8.88228 17.71404,13.82173 1.14862,0.99225 1.14862,0.99225 2.3211,2.00633 4.499,4.08106 6.69777,7.51322 8.77422,13.08847 -0.6981,0.6358 -1.39622,1.27305 -2.11524,1.92921 -18.60458,16.94983 -18.60458,16.94983 -36.66917,34.44378 -4.94053,-2.07035 -7.80015,-4.57718 -11.37428,-8.45744 -7.67484,-7.65288 -15.92845,-12.53268 -26.85075,-14.18548 -11.13113,1.80992 -17.92734,6.53114 -24.42672,15.36832 -2.95806,5.77021 -2.09286,12.62434 -1.49172,18.91396 3.34442,8.59857 9.0875,13.18593 16.12836,19.12346 6.16075,5.27991 11.91875,10.95846 17.71404,16.61227 1.59463,1.54513 1.59463,1.54513 3.22059,3.12227 4.97933,4.86816 9.80948,9.78724 14.40692,15.00168 5.49993,6.22414 11.48317,11.8896 17.52161,17.61325 10.85815,10.41432 20.45879,21.31457 29.46124,33.28129 -2.36286,5.68583 -6.36362,9.49044 -10.78057,13.7068 -0.75629,0.73474 -1.51408,1.46947 -2.29425,2.22603 -2.40911,2.33515 -4.83015,4.65865 -7.2497,6.98216 -1.64088,1.5844 -3.27878,3.17027 -4.91817,4.75613 -4.00821,3.87882 -8.02688,7.74744 -12.05001,11.61171 -6.46507,-5.29591 -12.68102,-10.71403 -18.64636,-16.54971 -1.30823,-1.2716 -2.61496,-2.5432 -3.96198,-3.85408 -3.10126,-3.09898 -6.0086,-6.31436 -8.89208,-9.60538 -6.07422,-6.79011 -12.58106,-13.09283 -19.17142,-19.40136 -2.57022,-2.48208 -5.13895,-4.96418 -7.70916,-7.44627 -4.00076,-3.857 -8.006,-7.71108 -12.0187,-11.55789 -3.90678,-3.74932 -7.80014,-7.51175 -11.69052,-11.27708 -1.1859,-1.12902 -2.37181,-2.2595 -3.59352,-3.42198 -11.82776,-11.48368 -21.05696,-24.13129 -27.6861,-39.0995 -0.47884,-1.06646 -0.95768,-2.13147 -1.45144,-3.22847 -7.7166,-20.44308 -3.6517,-44.62531 5.36717,-63.87971 11.50704,-21.19964 30.22797,-34.40885 53.03769,-42.17085 23.90911,-5.43704 48.36715,-1.55385 69.37488,10.52635 z"
     fill="#FF0400"
     id="path4546"
     style="fill:#00a1ff;fill-opacity:1;stroke-width:1.47319" />
  <path
     d="m 458.3468,592.69502 c 5.37761,2.21874 8.81899,5.33518 12.9182,9.35368 1.30673,1.27741 2.61347,2.55484 3.959,3.87008 2.03021,2.00634 2.03021,2.00634 4.09921,4.05341 1.35895,1.32543 2.7179,2.65087 4.11711,4.01703 10.96704,10.76641 10.96704,10.76641 15.18261,16.53372 -2.28828,5.31626 -5.5581,8.64658 -9.76025,12.66216 -1.35596,1.30652 -2.71341,2.61449 -4.11115,3.96029 -1.43502,1.37053 -2.87153,2.74107 -4.30954,4.11015 -2.79099,2.67124 -5.5775,5.34537 -8.36103,8.02388 -1.23812,1.18285 -2.47772,2.36425 -3.75313,3.58201 -3.10723,3.12227 -6.03844,6.27216 -8.94876,9.56173 -5.68938,6.39728 -11.72184,12.40756 -17.85426,18.39893 -1.72441,1.6877 -1.72441,1.6877 -3.48165,3.41033 -2.41359,2.36133 -4.83015,4.72121 -7.24821,7.07819 -3.67259,3.58637 -7.33472,7.18584 -10.99687,10.78385 -2.35989,2.30605 -4.72127,4.61211 -7.08264,6.91669 -1.07999,1.06355 -2.15999,2.12855 -3.2728,3.22411 -8.5654,8.31777 -17.56189,16.06668 -28.47821,21.31603 -1.10387,0.5456 -2.20772,1.09118 -3.3444,1.65424 -12.05451,4.79541 -22.97232,6.88758 -35.9994,6.80321 -1.50067,-0.009 -3.00282,-0.0175 -4.54972,-0.0263 -22.22646,-0.51649 -38.99326,-8.98994 -55.11863,-23.7079 -13.15239,-13.47256 -22.55313,-32.51602 -23.4944,-51.19427 -0.0745,-1.09847 -0.15067,-2.19548 -0.22675,-3.32595 -1.05464,-25.94121 12.16488,-45.90708 29.40307,-64.28272 3.1296,-3.24301 6.34871,-6.38273 9.60809,-9.50208 5.04944,2.13145 8.34611,4.87252 12.21262,8.66696 1.74829,1.70807 1.74829,1.70807 3.53237,3.45252 1.2038,1.19159 2.40761,2.38316 3.64723,3.61111 1.20381,1.17558 2.40761,2.3497 3.64722,3.5602 5.58943,5.49232 10.85815,10.973 15.74499,17.08221 -2.12271,4.81723 -4.69292,7.60632 -8.67131,11.09376 -7.12589,6.83667 -13.10614,14.44008 -14.03101,24.44265 0.51165,7.41427 2.75668,12.59524 7.78523,18.29562 7.4481,5.48504 12.7183,7.38808 22.03104,7.75181 9.43804,-1.35453 15.76736,-7.48702 22.34729,-13.66316 0.94872,-0.87731 1.89745,-1.75608 2.87601,-2.66104 7.96274,-7.41281 15.79719,-14.95512 23.60182,-22.52652 1.65728,-1.60769 1.65728,-1.60769 3.34888,-3.24593 4.82418,-4.71976 9.53052,-9.45988 13.95194,-14.54338 8.77722,-9.9342 18.57178,-18.9867 28.1023,-28.22253 2.03768,-1.98015 4.07385,-3.96029 6.11004,-5.93899 4.95246,-4.81433 9.90793,-9.62429 14.86785,-14.42989 z"
     fill="#FF0400"
     id="path4548"
     style="fill:#00a1ff;fill-opacity:1;stroke-width:1.47319" />
  <path
     d="m 725.36262,276.97743 c 17.16061,13.15248 29.64472,29.79967 34.30929,50.92219 2.22712,26.6905 -1.82585,48.32808 -19.701,69.34148 -6.565,7.23094 -13.47161,14.136 -20.57513,20.86354 -5.83108,-2.30604 -9.73191,-6.20814 -14.05487,-10.5147 -0.75332,-0.7391 -1.50663,-1.47674 -2.28232,-2.23767 -2.39269,-2.35115 -4.77496,-4.71103 -7.15721,-7.07091 -1.62447,-1.60041 -3.25044,-3.19937 -4.8779,-4.79686 -3.9754,-3.91083 -7.94185,-7.82892 -11.90382,-11.75284 5.74158,-7.62234 11.69648,-14.77472 18.29729,-21.71032 5.79677,-6.77556 6.21893,-12.27516 6.04141,-20.93194 -0.88308,-7.33133 -4.73617,-11.15049 -10.16748,-15.91826 -7.18854,-4.90891 -12.69593,-6.73628 -21.62977,-5.45596 -8.95323,3.13245 -15.3646,8.34106 -21.91468,14.89401 -0.91889,0.89479 -1.83779,1.78956 -2.78353,2.71197 -3.00132,2.93022 -5.98026,5.88079 -8.9592,8.83136 -2.08839,2.04854 -4.17828,4.0956 -6.26966,6.14123 -5.47605,5.36428 -10.9357,10.74457 -16.39089,16.13069 -5.57899,5.50106 -11.17588,10.9861 -16.76979,16.47115 -10.95808,10.7504 -21.89678,21.51827 -32.82354,32.29921 -1.67072,-1.38798 -3.33844,-2.77744 -5.00767,-4.16689 -0.92933,-0.77401 -1.85867,-1.54803 -2.81635,-2.34387 -3.11916,-2.64505 -6.06528,-5.41666 -8.97561,-8.27849 -1.08297,-1.06064 -2.16745,-2.12273 -3.28324,-3.21537 -1.09492,-1.08102 -2.18984,-2.16056 -3.31905,-3.27358 -1.11132,-1.09264 -2.22415,-2.18382 -3.36978,-3.30848 -2.06601,-2.0267 -4.12905,-4.05486 -6.18909,-6.08448 -2.92823,-2.87928 -5.8654,-5.74693 -8.80706,-8.61166 4.48855,-5.3643 8.88462,-10.28192 14.32041,-14.7398 7.47644,-6.30416 14.38902,-13.10738 21.34038,-19.95131 2.10779,-2.06308 4.21408,-4.12761 6.32186,-6.19069 3.66065,-3.58638 7.31684,-7.17712 10.97301,-10.76786 4.36921,-4.29201 8.73992,-8.58402 13.11659,-12.86877 2.71342,-2.65668 5.42385,-5.31772 8.12981,-7.98168 6.51429,-6.37837 13.10465,-12.5516 20.13956,-18.38437 2.78651,-2.37298 5.40147,-4.87543 8.02688,-7.41427 26.54197,-22.80005 71.71388,-20.33105 99.01215,-0.6358 z"
     fill="#FF0400"
     id="path4550"
     style="fill:#00a1ff;fill-opacity:1;stroke-width:1.47319" />
  <path
     d="m 626.90986,597.05978 c 5.04645,2.12564 8.28048,4.84342 12.1082,8.66696 1.1516,1.1392 2.3032,2.2784 3.4906,3.45252 1.78557,1.78664 1.78557,1.78664 3.60694,3.6111 7.26463,7.24115 14.41439,14.3426 22.5621,20.64242 -2.43746,5.53014 -6.13987,9.85708 -10.1123,14.3906 -0.72198,0.8264 -1.44397,1.65425 -2.18833,2.50537 -8.61909,9.73779 -17.93183,18.77429 -27.29379,27.82535 -1.88402,1.83174 -3.76657,3.66348 -5.6491,5.49668 -4.88982,4.75905 -9.79008,9.50936 -14.69035,14.25676 -5.02705,4.87253 -10.04367,9.75379 -15.06177,14.63359 -9.80052,9.52681 -19.60851,19.04344 -29.42395,28.5557 -6.23087,-5.11113 -12.24544,-10.31101 -17.98852,-15.94737 -1.31121,-1.28469 -2.62391,-2.56939 -3.97689,-3.89336 -1.33508,-1.31525 -2.67016,-2.62904 -4.047,-3.98357 -1.37536,-1.34871 -2.75071,-2.69743 -4.16784,-4.08687 -3.36977,-3.30267 -6.73358,-6.60825 -10.09589,-9.91673 2.06751,-6.14268 4.89878,-9.67086 9.5917,-14.1942 1.37088,-1.3298 2.74027,-2.66106 4.15141,-4.03305 1.50067,-1.436 2.99983,-2.87201 4.5005,-4.30801 1.54392,-1.49275 3.08634,-2.98841 4.62877,-4.48407 4.05893,-3.93556 8.13129,-7.85656 12.20813,-11.77612 6.49788,-6.25178 12.97936,-12.52394 19.45786,-18.7961 2.24949,-2.1722 4.50346,-4.34003 6.75892,-6.5064 6.93794,-6.697 13.69836,-13.42891 20.01126,-20.69332 3.95751,-4.45207 8.27451,-8.55639 12.57511,-12.68836 1.31719,-1.27451 1.31719,-1.27451 2.66121,-2.57522 2.12419,-2.05434 4.25286,-4.10577 6.38302,-6.1543 z"
     fill="#F53330"
     id="path4552"
     style="fill:#00a1ff;fill-opacity:1;stroke-width:1.47319" />
  <path
     d="m 480.72243,515.58427 c 4.38861,1.92777 7.46302,4.01412 10.83726,7.35171 0.91591,0.89914 1.83331,1.79828 2.77756,2.72506 1.46338,1.45638 1.46338,1.45638 2.95658,2.94331 1.0233,1.00535 2.04661,2.00924 3.09976,3.04515 3.26982,3.21537 6.5307,6.44093 9.79008,9.66793 3.2385,3.19937 6.47998,6.39729 9.72594,9.58939 2.01679,1.9845 4.02911,3.97338 6.03695,5.96662 5.69981,5.61744 11.5861,10.90607 17.7215,16.06814 3.35485,2.86182 6.50981,5.87932 9.63494,8.97685 1.1874,1.16829 2.37331,2.3366 3.59502,3.54127 2.42104,2.3977 4.8406,4.79688 7.26164,7.19458 6.46953,6.37255 13.01068,12.49048 20.07093,18.24032 2.40315,2.1693 2.40315,2.1693 5.38656,6.53406 -13.29112,12.96333 -26.58224,25.92666 -40.27613,39.28282 -5.15534,-2.51409 -7.50031,-4.06794 -11.3504,-7.9293 -1.00392,-0.99518 -2.00784,-1.98888 -3.0416,-3.0146 -1.03524,-1.04027 -2.0705,-2.07908 -3.13558,-3.15135 -2.03916,-2.0398 -4.0828,-4.07669 -6.12943,-6.10921 -0.89949,-0.90351 -1.799,-1.80702 -2.72684,-2.73816 -2.87601,-2.70615 -5.80274,-5.23916 -8.83241,-7.7751 -7.71361,-6.53986 -14.87232,-13.5904 -22.07429,-20.65404 -1.45442,-1.42145 -2.90883,-2.84145 -4.36326,-4.26145 -3.79042,-3.70277 -7.57489,-7.40845 -11.35936,-11.11559 -3.87844,-3.79734 -7.75986,-7.58886 -11.64129,-11.38329 -7.58683,-7.41428 -15.16917,-14.83436 -22.74855,-22.25737 2.7164,-5.72947 6.52772,-9.65194 11.10578,-14.02688 1.1859,-1.15084 1.1859,-1.15084 2.39568,-2.32351 2.5165,-2.43844 5.04197,-4.86525 7.56893,-7.29205 1.71248,-1.6557 3.42347,-3.3114 5.13296,-4.96855 4.18573,-4.04904 8.38043,-8.09081 12.58107,-12.12676 z"
     fill="#F53331"
     id="path4554"
     style="fill:#00a1ff;fill-opacity:1;stroke-width:1.47319" />
  <path
     d="m 462.82193,434.10876 c 8.51766,6.92834 16.46696,14.29168 24.33275,21.914 1.20977,1.14939 2.41805,2.29732 3.66364,3.48163 1.73187,1.67752 1.73187,1.67752 3.49805,3.38996 1.04271,1.00244 2.0854,2.00633 3.16094,3.04079 2.82678,3.3143 4.21108,6.3027 5.62074,10.36629 -1.84076,1.63679 -1.84076,1.63679 -3.71733,3.30704 -18.29283,16.25436 -18.29283,16.25436 -35.15808,33.88508 -6.33976,7.08109 -13.1136,13.69661 -19.94861,20.32232 -1.30972,1.27451 -2.61944,2.55048 -3.96795,3.86427 -4.14545,4.03449 -8.29539,8.06461 -12.44681,12.09474 -2.82679,2.7498 -5.65358,5.50106 -8.48036,8.25086 -6.89618,6.71009 -13.79682,13.41726 -20.70044,20.12008 -5.87286,-2.6494 -9.89451,-6.36819 -14.38156,-10.83334 -0.78614,-0.7711 -1.57227,-1.54221 -2.38226,-2.33514 -2.49861,-2.45444 -4.98828,-4.91908 -7.47645,-7.38226 -1.69756,-1.67025 -3.39512,-3.33904 -5.09268,-5.00784 -4.15292,-4.0825 -8.29689,-8.17373 -12.43489,-12.26933 5.93402,-6.93997 12.1276,-13.4842 18.70602,-19.8422 0.93083,-0.90496 1.86016,-1.80992 2.81934,-2.74252 2.00037,-1.94668 4.00225,-3.89045 6.00561,-5.83277 3.16988,-3.0728 6.3338,-6.1485 9.49621,-9.22711 6.70375,-6.52095 13.41346,-13.03753 20.12315,-19.55267 7.80463,-7.57722 15.60625,-15.15589 23.40044,-22.74185 3.12215,-3.03496 6.24727,-6.06556 9.37389,-9.09616 1.90192,-1.8492 3.80236,-3.6984 5.7043,-5.5476 0.87265,-0.84531 1.74529,-1.68916 2.64629,-2.55921 4.35579,-4.13488 4.35579,-4.13488 7.63605,-9.06706 z"
     fill="#F53330"
     id="path4556"
     style="fill:#00a1ff;fill-opacity:1;stroke-width:1.47319" />
  <path
     d="m 638.84352,361.36278 c 10.57324,8.43562 20.09482,17.90569 29.74616,27.31321 1.8706,1.81864 3.73972,3.63729 5.61032,5.4574 3.9053,3.80025 7.8076,7.60341 11.70842,11.40948 4.97634,4.85361 9.96312,9.69704 14.9514,14.53756 3.86202,3.74932 7.7151,7.50593 11.5682,11.26399 1.8348,1.78664 3.67109,3.57328 5.51036,5.35556 2.58066,2.50246 5.15088,5.01365 7.7181,7.52629 0.74735,0.72019 1.4932,1.44037 2.26292,2.18239 5.88182,5.78621 10.19732,11.56078 15.34372,18.25342 -12.79886,12.4832 -25.59772,24.96642 -38.78442,37.82791 -6.09363,-2.9724 -10.0049,-6.46712 -14.69482,-11.11559 -0.85624,-0.83802 -1.71397,-1.67606 -2.59706,-2.53882 -2.82978,-2.77018 -5.64911,-5.54907 -8.46992,-8.32943 -1.97204,-1.93213 -3.94558,-3.86427 -5.91911,-5.7964 -5.1986,-5.08931 -10.38825,-10.18735 -15.57641,-15.28829 -8.28644,-8.14319 -16.58183,-16.27764 -24.88319,-24.40774 -2.88795,-2.83128 -5.76993,-5.66837 -8.6534,-8.50546 -1.78856,-1.75608 -3.57861,-3.51072 -5.36867,-5.26535 -0.7906,-0.78129 -1.57972,-1.56113 -2.39418,-2.36425 -5.53275,-5.41375 -11.34146,-10.4245 -17.35454,-15.32322 2.7701,-5.86477 6.75296,-9.86872 11.43246,-14.3455 0.82341,-0.79875 1.64684,-1.5975 2.49562,-2.42099 2.62243,-2.54175 5.2553,-5.07331 7.88815,-7.60341 1.78409,-1.72554 3.56668,-3.45107 5.34927,-5.17806 4.36176,-4.22217 8.73396,-8.43708 13.11062,-12.6447 z"
     fill="#F53431"
     id="path4558"
     style="fill:#00a1ff;fill-opacity:1;stroke-width:1.47319" />
  <path
     d="m 318.12621,522.85887 c 5.93103,2.33224 9.93031,6.36381 14.35471,10.71403 1.23067,1.19304 1.23067,1.19304 2.48668,2.40934 2.70745,2.62759 5.40297,5.26536 8.09848,7.90459 1.88255,1.83465 3.76657,3.66785 5.6506,5.50251 3.94705,3.84534 7.88815,7.69652 11.82627,11.5506 5.036,4.92781 10.08544,9.84253 15.13785,14.75434 3.89336,3.7857 7.77925,7.58014 11.66367,11.37602 1.85717,1.81428 3.71882,3.62566 5.58048,5.43558 2.61049,2.53883 5.21053,5.08494 7.8076,7.63542 0.76376,0.73909 1.529,1.4782 2.31513,2.24057 4.88236,4.81724 8.07909,9.25329 12.03959,15.04679 -12.79887,12.48321 -25.59772,24.96641 -38.78443,37.8279 -4.59744,-2.24202 -7.01103,-3.54418 -10.55235,-6.78137 -1.29181,-1.17412 -1.29181,-1.17412 -2.6075,-2.37152 -1.37834,-1.27597 -1.37834,-1.27597 -2.78352,-2.57812 -0.96514,-0.88751 -1.93178,-1.77645 -2.92674,-2.6916 -7.736,-7.15384 -15.34222,-14.43427 -22.89773,-21.76851 -1.03375,-1.00244 -2.06751,-2.00342 -3.13259,-3.03642 -4.95992,-4.85216 -9.74532,-9.7756 -14.3368,-14.96384 -3.70093,-4.18144 -7.49584,-7.95115 -11.80538,-11.55352 -9.5723,-8.21303 -18.46288,-17.06622 -27.41015,-25.91504 7.82401,-9.26202 16.44012,-17.65691 25.17259,-26.09835 1.46933,-1.42583 2.93717,-2.85019 4.40501,-4.27601 3.5622,-3.45834 7.12888,-6.91232 10.69853,-10.36339 z"
     fill="#F53330"
     id="path4560"
     style="fill:#00a1ff;fill-opacity:1;stroke-width:1.47319" />
  <path
     d="m 617.9596,438.47352 c 14.66798,11.64372 28.19479,25.10028 40.27614,39.28283 -1.99292,4.32985 -4.16486,7.33135 -7.645,10.63837 -0.80404,0.77403 -1.60807,1.5495 -2.43596,2.34679 -2.8626,2.58395 -5.78038,5.06021 -8.73992,7.53649 -7.51672,6.38564 -14.46362,13.29215 -21.45526,20.21611 -7.736,7.65869 -15.48244,15.12535 -23.85241,22.1206 -7.15423,6.23433 -13.70731,13.12628 -20.36331,19.86111 -1.13817,1.13048 -2.27634,2.2624 -3.44882,3.42633 -1.52752,1.53785 -1.52752,1.53785 -3.08486,3.10625 -4.90176,3.99667 -4.90176,3.99667 -8.91893,3.86282 -3.23849,-2.50683 -5.91015,-4.91908 -8.73992,-7.81583 -0.82044,-0.80893 -1.63939,-1.61787 -2.48369,-2.45153 -2.61646,-2.59412 -5.20607,-5.21007 -7.79567,-7.82894 -1.76768,-1.76045 -3.53684,-3.51944 -5.30899,-5.27698 -4.34088,-4.3153 -8.65937,-8.65096 -12.96444,-12.99971 2.29276,-5.30173 5.55064,-8.68441 9.70505,-12.73055 0.68022,-0.6649 1.36044,-1.33125 2.06006,-2.01652 2.24352,-2.19402 4.49749,-4.37785 6.75296,-6.56024 1.57375,-1.53202 3.14601,-3.0655 4.71679,-4.599 3.29965,-3.21537 6.60229,-6.42492 9.90941,-9.6301 4.21109,-4.08251 8.41175,-8.17375 12.60792,-12.26935 3.25044,-3.16881 6.50535,-6.33472 9.76025,-9.49917 1.54839,-1.50584 3.0953,-3.01168 4.64219,-4.51898 7.7912,-7.58886 15.62416,-15.06424 24.00457,-22.03912 2.91331,-2.44281 5.63867,-5.03112 8.32672,-7.70672 0.86072,-0.85257 1.72292,-1.70661 2.6105,-2.58538 0.61458,-0.6169 1.23065,-1.23378 1.86462,-1.86958 z"
     fill="#F53431"
     id="path4562"
     style="fill:#00a1ff;fill-opacity:1;stroke-width:1.47319" />
  <path
     d="m 486.68927,359.90786 c 5.31048,2.58976 7.88814,4.42149 11.95604,8.3978 1.74082,1.69061 1.74082,1.69061 3.51596,3.41614 1.24258,1.22068 2.48369,2.44282 3.76209,3.70132 1.93772,1.88994 1.93772,1.88994 3.91275,3.81771 2.73429,2.66977 5.46264,5.34392 8.18948,8.02097 4.14545,4.06942 8.30284,8.12719 12.46173,12.1835 2.65971,2.6014 5.31794,5.20134 7.97467,7.80418 1.84823,1.80556 1.84823,1.80556 3.73524,3.6475 7.14827,7.02872 13.96089,14.2422 20.56917,21.75686 3.41154,3.69987 6.83948,7.38372 10.27339,11.06467 3.15645,3.48889 6.13839,7.12475 9.11881,10.75913 -12.79885,12.48322 -25.5977,24.96642 -38.78441,37.82791 -6.61275,-5.52869 -12.81975,-10.86243 -18.95067,-16.81741 -1.17099,-1.13484 -1.17099,-1.13484 -2.36436,-2.2915 -2.54037,-2.46464 -5.07628,-4.93364 -7.61069,-7.40409 -1.77962,-1.73136 -3.56071,-3.46271 -5.34032,-5.19552 -3.71435,-3.61256 -7.42423,-7.22949 -11.13411,-10.84788 -4.74512,-4.62809 -9.50069,-9.24747 -14.25924,-13.86248 -3.67259,-3.566 -7.33921,-7.13928 -11.00284,-10.71403 -1.75127,-1.70516 -3.50403,-3.40888 -5.25977,-5.11113 -2.45236,-2.37733 -4.89579,-4.7634 -7.33622,-7.15239 -1.38878,-1.35306 -2.77905,-2.70614 -4.2096,-4.09996 -3.5264,-3.7988 -3.5264,-3.7988 -8.00153,-11.0734 12.79887,-12.4832 25.59772,-24.96641 38.78443,-37.8279 z"
     fill="#F53330"
     id="path4564"
     style="fill:#00a1ff;fill-opacity:1;stroke-width:1.47319" />
  <path
     d="m 461.33023,288.61679 c 5.68638,2.58248 9.29781,5.82404 13.72818,10.19461 0.7205,0.7071 1.4395,1.41274 2.18238,2.14166 2.28678,2.24638 4.56164,4.50152 6.83798,6.75954 1.55287,1.52912 3.10723,3.05826 4.66159,4.58591 3.79939,3.73769 7.58981,7.48412 11.37428,11.23635 -2.14955,6.92833 -6.36512,11.16505 -11.53836,16.11324 -1.30972,1.27888 -1.30972,1.27888 -2.64629,2.58393 -2.879,2.80509 -5.7744,5.59417 -8.66832,8.38325 -2.00336,1.94523 -4.00674,3.89191 -6.00711,5.84006 -5.26275,5.11694 -10.53892,10.21934 -15.81808,15.32029 -5.38805,5.20861 -10.76268,10.43179 -16.13879,15.65349 -10.5434,10.23682 -21.1017,20.46054 -31.66897,30.67552 -4.20364,-1.97577 -7.25716,-3.81625 -10.52997,-7.07673 -0.82194,-0.81039 -1.64387,-1.62223 -2.49115,-2.45735 -1.26199,-1.26724 -1.26199,-1.26724 -2.54933,-2.56066 -0.83536,-0.82786 -1.67072,-1.6557 -2.53143,-2.50974 -1.6558,-1.63969 -3.30712,-3.28521 -4.95545,-4.93364 -2.00188,-1.98886 -4.03955,-3.94573 -6.08319,-5.89533 -2.93271,-2.92439 -5.667,-5.87641 -8.38192,-8.98704 -0.79805,-0.91223 -1.59463,-1.82447 -2.41656,-2.76435 -0.60415,-0.69253 -1.2068,-1.38508 -1.82884,-2.09798 10.45688,-10.26738 20.92121,-20.52456 31.39599,-30.77302 4.86446,-4.76049 9.72594,-9.52245 14.58145,-14.29168 4.6944,-4.60918 9.39627,-9.21254 14.10261,-13.81009 1.78558,-1.74736 3.56966,-3.49763 5.35076,-5.2508 9.5365,-9.38279 18.98498,-18.364 30.03854,-26.07944 z"
     fill="#F63331"
     id="path4566"
     style="fill:#00a1ff;fill-opacity:1;stroke-width:1.47319" />
  <path
     d="m 579.17519,912.77737 c 2.38673,5.79785 0.42663,9.42788 -1.95861,15.00313 -2.21668,5.23625 -4.00076,9.68831 -5.03452,15.27665 -3.21911,7.6267 -10.12124,11.59863 -16.8742,16.27766 -0.98454,-0.48014 -1.96906,-0.96026 -2.98342,-1.45492 0.9905,-1.09266 1.98099,-2.18384 3.00131,-3.3085 11.4608,-12.86149 18.84028,-25.35342 23.84944,-41.79402 z"
     fill="#F42321"
     id="path4568"
     style="fill:#00a1ff;fill-opacity:1;stroke-width:1.47319" />
  <path
     d="m 424.03751,796.38379 c 1.04868,2.47772 1.04868,2.47772 1.4917,5.81967 -1.98098,3.43216 -1.98098,3.43216 -4.84804,6.91088 -0.93082,1.16248 -1.86165,2.32496 -2.82082,3.52236 -2.77308,2.66104 -2.77308,2.66104 -7.24822,2.66104 -0.38038,0.99517 -0.76226,1.99179 -1.15309,3.01751 -2.11225,4.91036 -4.62429,9.49334 -7.23776,14.16801 -0.72647,1.3036 -0.72647,1.3036 -1.46784,2.63485 -1.18592,2.12419 -2.37629,4.24546 -3.56668,6.36819 -0.49227,-0.96025 -0.98453,-1.92049 -1.49171,-2.90984 6.21147,-15.68112 16.15371,-30.30597 28.34246,-42.19267 z"
     fill="#F52221"
     id="path4570"
     style="fill:#00a1ff;fill-opacity:1;stroke-width:1.47319" />
  <path
     d="m 407.62872,284.25203 c 5.47159,2.18675 8.48633,5.29155 12.30659,9.63884 1.05314,1.18867 2.10778,2.37735 3.19376,3.60239 0.79209,0.91222 1.58418,1.82301 2.40014,2.76289 -2.26738,4.89871 -3.76058,6.70427 -8.95024,8.72952 0.79955,-0.8104 1.59911,-1.62079 2.42403,-2.45591 0.67723,-1.1101 1.35297,-2.22021 2.05109,-3.36377 -1.22618,-4.56555 -2.54037,-6.84249 -5.96682,-10.18444 -1.4768,0.72019 -1.4768,0.72019 -2.98343,1.45492 -0.49225,-1.44037 -0.98452,-2.88075 -1.49171,-4.36476 -2.23756,-2.42681 -2.23756,-2.42681 -4.47512,-4.36476 0.49227,-0.48012 0.98452,-0.96025 1.49171,-1.45492 z"
     fill="#F42321"
     id="path4572"
     style="fill:#00a1ff;fill-opacity:1;stroke-width:1.47319" />
  <path
     d="m 461.66884,290.55911 c 0.87265,0.32008 1.74529,0.63871 2.6448,0.96752 -2.48668,2.42389 -4.97187,4.84924 -7.45855,7.2746 -1.01585,1.07955 -2.03021,2.16055 -3.07738,3.27356 -3.02967,2.66979 -4.86447,3.4438 -8.85628,4.00104 1.81242,-6.67809 5.56408,-10.04623 10.66273,-14.49247 2.76264,-1.51165 2.76264,-1.51165 6.08468,-1.02425 z"
     fill="#F52E2C"
     id="path4574"
     style="fill:#00a1ff;fill-opacity:1;stroke-width:1.47319" />
  <path
     d="m 887.95883,450.11288 c 6.39943,0 12.79887,0 19.39221,0 0,0.96024 0,1.9205 0,2.90984 2.46132,0 4.92264,0 7.45855,0 0,0.96024 0,1.9205 0,2.90984 -8.36849,-0.48013 -16.73697,-0.96025 -25.35905,-1.45492 -0.49226,-1.44037 -0.98452,-2.88074 -1.49171,-4.36476 z"
     fill="#F6423E"
     id="path4576"
     style="fill:#00a1ff;fill-opacity:1;stroke-width:1.47319" />
  <path
     d="m 1019.2292,501.03507 c 0.4922,0 0.9845,0 1.4917,0 0.4922,12.00309 0.9845,24.00617 1.4917,36.373 -1.4768,0.48012 -2.9536,0.96024 -4.4751,1.45492 0.4922,-12.48321 0.9845,-24.96643 1.4917,-37.82792 z"
     fill="#F5413E"
     id="path4578"
     style="fill:#00a1ff;fill-opacity:1;stroke-width:1.47319" />
  <path
     d="m 893.92567,399.19068 c 0,0.96026 0,1.9205 0,2.90984 -2.61049,0.0785 -5.22099,0.13386 -7.83147,0.18187 -1.45442,0.0335 -2.90734,0.0669 -4.40501,0.10187 -4.20215,-0.28663 -6.57396,-1.0912 -10.13915,-3.19356 7.79716,-1.75608 14.56654,-1.10138 22.37563,0 z"
     fill="#F52825"
     id="path4580"
     style="fill:#00a1ff;fill-opacity:1;stroke-width:1.47319" />
  <path
     d="m 297.24229,602.87946 c 5.78038,2.5461 5.78038,2.5461 7.45855,5.81968 -2.03021,-0.0903 -2.03021,-0.0903 -4.1022,-0.18187 -4.66607,0.17459 -6.91556,0.75073 -10.81489,3.09171 2.46132,-2.88075 4.92264,-5.76148 7.45854,-8.72952 z"
     fill="#F53E3D"
     id="path4582"
     style="fill:#00a1ff;fill-opacity:1;stroke-width:1.47319" />
  <path
     d="m 609.00936,292.98155 c 1.47679,0.96024 2.95358,1.92049 4.47512,2.90984 -0.92336,0.35936 -1.84673,0.72019 -2.79694,1.09119 -3.69348,2.11836 -4.58851,3.82353 -6.15331,7.63833 -0.98452,-0.48013 -1.96905,-0.96025 -2.98341,-1.45492 5.78037,-8.54765 5.78037,-8.54765 7.45854,-10.18444 z"
     fill="#F73F3C"
     id="path4584"
     style="fill:#00a1ff;fill-opacity:1;stroke-width:1.47319" />
  <path
     d="m 389.72821,106.75124 c 0,4.80123 0,9.60247 0,14.54919 -4.47512,-4.36476 -4.47512,-4.36476 -4.75556,-9.00231 0.0925,-1.35046 0.18498,-2.70077 0.28044,-4.09196 2.98342,-1.45492 2.98342,-1.45492 4.47512,-1.45492 z"
     fill="#F74542"
     id="path4586"
     style="fill:#00a1ff;fill-opacity:1;stroke-width:1.47319" />
  <path
     d="m 277.85008,384.6415 c 0.64592,0.68962 1.29183,1.37925 1.95713,2.09072 2.55231,2.6174 2.55231,2.6174 6.99312,3.72896 0.49227,2.88073 0.98454,5.76148 1.49171,8.7295 -5.06285,-4.54953 -8.36251,-8.09808 -10.44196,-14.54918 z"
     fill="#F41E1B"
     id="path4588"
     style="fill:#00a1ff;fill-opacity:1;stroke-width:1.47319" />
  <path
     d="m 929.72667,627.61163 c -0.49227,0.96025 -0.98453,1.92051 -1.49171,2.90984 -3.44585,0 -6.89169,0 -10.44196,0 -0.49226,-0.96024 -0.98453,-1.92049 -1.4917,-2.90984 5.03898,-1.22795 8.46544,-1.61204 13.42537,0 z"
     fill="#F82E2B"
     id="path4590"
     style="fill:#00a1ff;fill-opacity:1;stroke-width:1.47319" />
</svg>
